<svg width="192" height="192" viewBox="0 0 192 192" xmlns="http://www.w3.org/2000/svg">
  <defs>
    <linearGradient id="mountainGradient" x1="0%" y1="0%" x2="100%" y2="100%">
      <stop offset="0%" style="stop-color:#1e40af;stop-opacity:1" />
      <stop offset="100%" style="stop-color:#3b82f6;stop-opacity:1" />
    </linearGradient>
    <linearGradient id="sunGradient" x1="0%" y1="0%" x2="100%" y2="100%">
      <stop offset="0%" style="stop-color:#f97316;stop-opacity:1" />
      <stop offset="100%" style="stop-color:#fb923c;stop-opacity:1" />
    </linearGradient>
    <linearGradient id="bgGradient" x1="0%" y1="0%" x2="100%" y2="100%">
      <stop offset="0%" style="stop-color:#ffffff;stop-opacity:1" />
      <stop offset="100%" style="stop-color:#f1f5f9;stop-opacity:1" />
    </linearGradient>
  </defs>
  
  <!-- 背景 -->
  <rect width="192" height="192" fill="url(#bgGradient)"/>
  
  <!-- 背景装饰圆形 -->
  <circle cx="96" cy="96" r="80" fill="url(#mountainGradient)" opacity="0.1"/>
  
  <!-- 山峰图标 -->
  <g transform="translate(48, 64)">
    <!-- 主山峰 -->
    <path d="M12 64 L48 24 L84 64 Z" fill="url(#mountainGradient)"/>
    <!-- 副山峰 -->
    <path d="M48 64 L84 36 L120 64 Z" fill="url(#mountainGradient)" opacity="0.8"/>
    <!-- 太阳 -->
    <circle cx="100" cy="32" r="14" fill="url(#sunGradient)"/>
    <!-- 太阳光芒 -->
    <g stroke="url(#sunGradient)" stroke-width="3" opacity="0.6">
      <line x1="100" y1="10" x2="100" y2="16"/>
      <line x1="118" y1="18" x2="114" y2="22"/>
      <line x1="126" y1="32" x2="120" y2="32"/>
      <line x1="118" y1="46" x2="114" y2="42"/>
      <line x1="82" y1="46" x2="86" y2="42"/>
      <line x1="74" y1="32" x2="80" y2="32"/>
      <line x1="82" y1="18" x2="86" y2="22"/>
    </g>
  </g>
</svg>