<svg width="180" height="180" viewBox="0 0 180 180" xmlns="http://www.w3.org/2000/svg">
  <defs>
    <linearGradient id="mountainGradient" x1="0%" y1="0%" x2="100%" y2="100%">
      <stop offset="0%" style="stop-color:#1e40af;stop-opacity:1" />
      <stop offset="100%" style="stop-color:#3b82f6;stop-opacity:1" />
    </linearGradient>
    <linearGradient id="sunGradient" x1="0%" y1="0%" x2="100%" y2="100%">
      <stop offset="0%" style="stop-color:#f97316;stop-opacity:1" />
      <stop offset="100%" style="stop-color:#fb923c;stop-opacity:1" />
    </linearGradient>
    <linearGradient id="bgGradient" x1="0%" y1="0%" x2="100%" y2="100%">
      <stop offset="0%" style="stop-color:#f8fafc;stop-opacity:1" />
      <stop offset="100%" style="stop-color:#e2e8f0;stop-opacity:1" />
    </linearGradient>
  </defs>
  
  <!-- 圆角背景 -->
  <rect width="180" height="180" rx="40" ry="40" fill="url(#bgGradient)"/>
  
  <!-- 背景装饰圆形 -->
  <circle cx="90" cy="90" r="70" fill="url(#mountainGradient)" opacity="0.1"/>
  
  <!-- 山峰图标 -->
  <g transform="translate(45, 60)">
    <!-- 主山峰 -->
    <path d="M10 60 L45 20 L80 60 Z" fill="url(#mountainGradient)"/>
    <!-- 副山峰 -->
    <path d="M45 60 L80 35 L115 60 Z" fill="url(#mountainGradient)" opacity="0.8"/>
    <!-- 太阳 -->
    <circle cx="95" cy="30" r="12" fill="url(#sunGradient)"/>
    <!-- 太阳光芒 -->
    <g stroke="url(#sunGradient)" stroke-width="3" opacity="0.6">
      <line x1="95" y1="10" x2="95" y2="15"/>
      <line x1="110" y1="18" x2="107" y2="21"/>
      <line x1="117" y1="30" x2="112" y2="30"/>
      <line x1="110" y1="42" x2="107" y2="39"/>
      <line x1="80" y1="42" x2="83" y2="39"/>
      <line x1="73" y1="30" x2="78" y2="30"/>
      <line x1="80" y1="18" x2="83" y2="21"/>
    </g>
  </g>
</svg>